<?xml version="1.0" encoding="UTF-8"?>
<svg xmlns:xhtml="http://www.w3.org/1999/xhtml" xmlns:xlink="http://www.w3.org/1999/xlink" xmlns="http://www.w3.org/2000/svg" id="mermaid-svg-30" width="100%" class="flowchart" style="max-width: 100%;" viewBox="-41.857031250000006 -41.857031250000006 920.8546875 1043.7140625" height="100%"><style>#mermaid-svg-30{font-family:"trebuchet ms",verdana,arial,sans-serif;font-size:16px;fill:#ccc;}@keyframes edge-animation-frame{from{stroke-dashoffset:0;}}@keyframes dash{to{stroke-dashoffset:0;}}#mermaid-svg-30 .edge-animation-slow{stroke-dasharray:9,5!important;stroke-dashoffset:900;animation:dash 50s linear infinite;stroke-linecap:round;}#mermaid-svg-30 .edge-animation-fast{stroke-dasharray:9,5!important;stroke-dashoffset:900;animation:dash 20s linear infinite;stroke-linecap:round;}#mermaid-svg-30 .error-icon{fill:#a44141;}#mermaid-svg-30 .error-text{fill:#ddd;stroke:#ddd;}#mermaid-svg-30 .edge-thickness-normal{stroke-width:1px;}#mermaid-svg-30 .edge-thickness-thick{stroke-width:3.5px;}#mermaid-svg-30 .edge-pattern-solid{stroke-dasharray:0;}#mermaid-svg-30 .edge-thickness-invisible{stroke-width:0;fill:none;}#mermaid-svg-30 .edge-pattern-dashed{stroke-dasharray:3;}#mermaid-svg-30 .edge-pattern-dotted{stroke-dasharray:2;}#mermaid-svg-30 .marker{fill:lightgrey;stroke:lightgrey;}#mermaid-svg-30 .marker.cross{stroke:lightgrey;}#mermaid-svg-30 svg{font-family:"trebuchet ms",verdana,arial,sans-serif;font-size:16px;}#mermaid-svg-30 p{margin:0;}#mermaid-svg-30 .label{font-family:"trebuchet ms",verdana,arial,sans-serif;color:#ccc;}#mermaid-svg-30 .cluster-label text{fill:#F9FFFE;}#mermaid-svg-30 .cluster-label span{color:#F9FFFE;}#mermaid-svg-30 .cluster-label span p{background-color:transparent;}#mermaid-svg-30 .label text,#mermaid-svg-30 span{fill:#ccc;color:#ccc;}#mermaid-svg-30 .node rect,#mermaid-svg-30 .node circle,#mermaid-svg-30 .node ellipse,#mermaid-svg-30 .node polygon,#mermaid-svg-30 .node path{fill:#1f2020;stroke:#ccc;stroke-width:1px;}#mermaid-svg-30 .rough-node .label text,#mermaid-svg-30 .node .label text,#mermaid-svg-30 .image-shape .label,#mermaid-svg-30 .icon-shape .label{text-anchor:middle;}#mermaid-svg-30 .node .katex path{fill:#000;stroke:#000;stroke-width:1px;}#mermaid-svg-30 .rough-node .label,#mermaid-svg-30 .node .label,#mermaid-svg-30 .image-shape .label,#mermaid-svg-30 .icon-shape .label{text-align:center;}#mermaid-svg-30 .node.clickable{cursor:pointer;}#mermaid-svg-30 .root .anchor path{fill:lightgrey!important;stroke-width:0;stroke:lightgrey;}#mermaid-svg-30 .arrowheadPath{fill:lightgrey;}#mermaid-svg-30 .edgePath .path{stroke:lightgrey;stroke-width:2.0px;}#mermaid-svg-30 .flowchart-link{stroke:lightgrey;fill:none;}#mermaid-svg-30 .edgeLabel{background-color:hsl(0, 0%, 34.4117647059%);text-align:center;}#mermaid-svg-30 .edgeLabel p{background-color:hsl(0, 0%, 34.4117647059%);}#mermaid-svg-30 .edgeLabel rect{opacity:0.5;background-color:hsl(0, 0%, 34.4117647059%);fill:hsl(0, 0%, 34.4117647059%);}#mermaid-svg-30 .labelBkg{background-color:rgba(87.75, 87.75, 87.75, 0.5);}#mermaid-svg-30 .cluster rect{fill:hsl(180, 1.5873015873%, 28.3529411765%);stroke:rgba(255, 255, 255, 0.25);stroke-width:1px;}#mermaid-svg-30 .cluster text{fill:#F9FFFE;}#mermaid-svg-30 .cluster span{color:#F9FFFE;}#mermaid-svg-30 div.mermaidTooltip{position:absolute;text-align:center;max-width:200px;padding:2px;font-family:"trebuchet ms",verdana,arial,sans-serif;font-size:12px;background:hsl(20, 1.5873015873%, 12.3529411765%);border:1px solid rgba(255, 255, 255, 0.25);border-radius:2px;pointer-events:none;z-index:100;}#mermaid-svg-30 .flowchartTitleText{text-anchor:middle;font-size:18px;fill:#ccc;}#mermaid-svg-30 rect.text{fill:none;stroke-width:0;}#mermaid-svg-30 .icon-shape,#mermaid-svg-30 .image-shape{background-color:hsl(0, 0%, 34.4117647059%);text-align:center;}#mermaid-svg-30 .icon-shape p,#mermaid-svg-30 .image-shape p{background-color:hsl(0, 0%, 34.4117647059%);padding:2px;}#mermaid-svg-30 .icon-shape rect,#mermaid-svg-30 .image-shape rect{opacity:0.5;background-color:hsl(0, 0%, 34.4117647059%);fill:hsl(0, 0%, 34.4117647059%);}#mermaid-svg-30 .label-icon{display:inline-block;height:1em;overflow:visible;vertical-align:-0.125em;}#mermaid-svg-30 .node .label-icon path{fill:currentColor;stroke:revert;stroke-width:revert;}#mermaid-svg-30 :root{--mermaid-font-family:"trebuchet ms",verdana,arial,sans-serif;}</style><g><marker id="mermaid-svg-30_flowchart-v2-pointEnd" class="marker flowchart-v2" viewBox="0 0 10 10" refX="5" refY="5" markerUnits="userSpaceOnUse" markerWidth="8" markerHeight="8" orient="auto"><path d="M 0 0 L 10 5 L 0 10 z" class="arrowMarkerPath" style="stroke-width: 1; stroke-dasharray: 1, 0;"/></marker><marker id="mermaid-svg-30_flowchart-v2-pointStart" class="marker flowchart-v2" viewBox="0 0 10 10" refX="4.5" refY="5" markerUnits="userSpaceOnUse" markerWidth="8" markerHeight="8" orient="auto"><path d="M 0 5 L 10 10 L 10 0 z" class="arrowMarkerPath" style="stroke-width: 1; stroke-dasharray: 1, 0;"/></marker><marker id="mermaid-svg-30_flowchart-v2-circleEnd" class="marker flowchart-v2" viewBox="0 0 10 10" refX="11" refY="5" markerUnits="userSpaceOnUse" markerWidth="11" markerHeight="11" orient="auto"><circle cx="5" cy="5" r="5" class="arrowMarkerPath" style="stroke-width: 1; stroke-dasharray: 1, 0;"/></marker><marker id="mermaid-svg-30_flowchart-v2-circleStart" class="marker flowchart-v2" viewBox="0 0 10 10" refX="-1" refY="5" markerUnits="userSpaceOnUse" markerWidth="11" markerHeight="11" orient="auto"><circle cx="5" cy="5" r="5" class="arrowMarkerPath" style="stroke-width: 1; stroke-dasharray: 1, 0;"/></marker><marker id="mermaid-svg-30_flowchart-v2-crossEnd" class="marker cross flowchart-v2" viewBox="0 0 11 11" refX="12" refY="5.2" markerUnits="userSpaceOnUse" markerWidth="11" markerHeight="11" orient="auto"><path d="M 1,1 l 9,9 M 10,1 l -9,9" class="arrowMarkerPath" style="stroke-width: 2; stroke-dasharray: 1, 0;"/></marker><marker id="mermaid-svg-30_flowchart-v2-crossStart" class="marker cross flowchart-v2" viewBox="0 0 11 11" refX="-1" refY="5.2" markerUnits="userSpaceOnUse" markerWidth="11" markerHeight="11" orient="auto"><path d="M 1,1 l 9,9 M 10,1 l -9,9" class="arrowMarkerPath" style="stroke-width: 2; stroke-dasharray: 1, 0;"/></marker><g class="root"><g class="clusters"><g class="cluster" id="subGraph0" data-look="classic"><rect style="" x="8" y="568" width="821.140625" height="104"/><g class="cluster-label" transform="translate(354.0078125, 568)"><foreignObject width="129.125" height="24"><div xmlns="http://www.w3.org/1999/xhtml" style="display: table-cell; white-space: nowrap; line-height: 1.5; max-width: 200px; text-align: center;"><span class="nodeLabel"><p>Parallel Execution</p></span></div></foreignObject></g></g></g><g class="edgePaths"><path d="M413.165,86L410.018,92.167C406.871,98.333,400.576,110.667,400.821,122.43C401.065,134.193,407.849,145.386,411.241,150.983L414.633,156.579" id="L_User_Orc_0" class="edge-thickness-normal edge-pattern-solid edge-thickness-normal edge-pattern-solid flowchart-link" style="" marker-end="url(#mermaid-svg-30_flowchart-v2-pointEnd)"/><path d="M398.266,214L390.316,220.167C382.367,226.333,366.469,238.667,358.52,250.333C350.57,262,350.57,273,350.57,278.5L350.57,284" id="L_Orc_Dec_0" class="edge-thickness-normal edge-pattern-solid edge-thickness-normal edge-pattern-solid flowchart-link" style="" marker-end="url(#mermaid-svg-30_flowchart-v2-pointEnd)"/><path d="M350.57,342L350.57,348.167C350.57,354.333,350.57,366.667,350.57,378.333C350.57,390,350.57,401,350.57,406.5L350.57,412" id="L_Dec_TQ_0" class="edge-thickness-normal edge-pattern-solid edge-thickness-normal edge-pattern-solid flowchart-link" style="" marker-end="url(#mermaid-svg-30_flowchart-v2-pointEnd)"/><path d="M220.57,493.691L199.678,499.909C178.785,506.127,137,518.564,116.107,530.949C95.215,543.333,95.215,555.667,98.55,565.506C101.885,575.346,108.555,582.692,111.89,586.365L115.225,590.039" id="L_TQ_S1_0" class="edge-thickness-normal edge-pattern-solid edge-thickness-normal edge-pattern-solid flowchart-link" style="" marker-end="url(#mermaid-svg-30_flowchart-v2-pointEnd)"/><path d="M350.57,494L350.57,500.167C350.57,506.333,350.57,518.667,350.57,531C350.57,543.333,350.57,555.667,356.617,565.645C362.663,575.622,374.757,583.245,380.803,587.056L386.85,590.867" id="L_TQ_S2_0" class="edge-thickness-normal edge-pattern-solid edge-thickness-normal edge-pattern-solid flowchart-link" style="" marker-end="url(#mermaid-svg-30_flowchart-v2-pointEnd)"/><path d="M476.589,494L496.515,500.167C516.441,506.333,556.293,518.667,576.219,531C596.145,543.333,596.145,555.667,603.045,565.676C609.945,575.685,623.746,583.369,630.647,587.212L637.547,591.054" id="L_TQ_S3_0" class="edge-thickness-normal edge-pattern-solid edge-thickness-normal edge-pattern-solid flowchart-link" style="" marker-end="url(#mermaid-svg-30_flowchart-v2-pointEnd)"/><path d="M142.43,647L142.43,651.167C142.43,655.333,142.43,663.667,142.43,674C142.43,684.333,142.43,696.667,169.783,708.857C197.136,721.047,251.843,733.093,279.197,739.116L306.55,745.14" id="L_S1_FileSys_0" class="edge-thickness-normal edge-pattern-solid edge-thickness-normal edge-pattern-solid flowchart-link" style="" marker-end="url(#mermaid-svg-30_flowchart-v2-pointEnd)"/><path d="M433.07,647L433.07,651.167C433.07,655.333,433.07,663.667,433.07,674C433.07,684.333,433.07,696.667,433.07,708.333C433.07,720,433.07,731,433.07,736.5L433.07,742" id="L_S2_FileSys_0" class="edge-thickness-normal edge-pattern-solid edge-thickness-normal edge-pattern-solid flowchart-link" style="" marker-end="url(#mermaid-svg-30_flowchart-v2-pointEnd)"/><path d="M689.531,647L689.531,651.167C689.531,655.333,689.531,663.667,689.531,674C689.531,684.333,689.531,696.667,665.467,708.839C641.403,721.01,593.274,733.021,569.21,739.026L545.146,745.031" id="L_S3_FileSys_0" class="edge-thickness-normal edge-pattern-solid edge-thickness-normal edge-pattern-solid flowchart-link" style="" marker-end="url(#mermaid-svg-30_flowchart-v2-pointEnd)"/><path d="M433.07,800L433.07,806.167C433.07,812.333,433.07,824.667,433.07,836.333C433.07,848,433.07,859,433.07,864.5L433.07,870" id="L_FileSys_Mem_0" class="edge-thickness-normal edge-pattern-solid edge-thickness-normal edge-pattern-solid flowchart-link" style="" marker-end="url(#mermaid-svg-30_flowchart-v2-pointEnd)"/><path d="M160.522,593L163.314,588.833C166.106,584.667,171.69,576.333,174.481,566C177.273,555.667,177.273,543.333,177.273,524.5C177.273,505.667,177.273,480.333,177.273,455C177.273,429.667,177.273,404.333,177.273,381C177.273,357.667,177.273,336.333,177.273,315C177.273,293.667,177.273,272.333,203.265,255.164C229.256,237.994,281.239,224.988,307.23,218.485L333.221,211.982" id="L_S1_Orc_0" class="edge-thickness-normal edge-pattern-solid edge-thickness-normal edge-pattern-solid flowchart-link" style="" marker-end="url(#mermaid-svg-30_flowchart-v2-pointEnd)"/><path d="M481.56,593L489.042,588.833C496.525,584.667,511.491,576.333,518.974,566C526.457,555.667,526.457,543.333,526.457,524.5C526.457,505.667,526.457,480.333,526.457,455C526.457,429.667,526.457,404.333,526.457,381C526.457,357.667,526.457,336.333,526.457,315C526.457,293.667,526.457,272.333,518.009,255.877C509.56,239.42,492.664,227.841,484.216,222.051L475.767,216.261" id="L_S2_Orc_0" class="edge-thickness-normal edge-pattern-solid edge-thickness-normal edge-pattern-solid flowchart-link" style="" marker-end="url(#mermaid-svg-30_flowchart-v2-pointEnd)"/><path d="M720.584,593L725.376,588.833C730.168,584.667,739.752,576.333,744.544,566C749.336,555.667,749.336,543.333,749.336,524.5C749.336,505.667,749.336,480.333,749.336,455C749.336,429.667,749.336,404.333,749.336,381C749.336,357.667,749.336,336.333,749.336,315C749.336,293.667,749.336,272.333,713.273,254.369C677.21,236.405,605.085,221.809,569.022,214.511L532.96,207.214" id="L_S3_Orc_0" class="edge-thickness-normal edge-pattern-solid edge-thickness-normal edge-pattern-solid flowchart-link" style="" marker-end="url(#mermaid-svg-30_flowchart-v2-pointEnd)"/><path d="M449.434,160L453.172,153.833C456.909,147.667,464.384,135.333,465.278,123.594C466.171,111.854,460.482,100.709,457.638,95.136L454.794,89.563" id="L_Orc_User_0" class="edge-thickness-normal edge-pattern-solid edge-thickness-normal edge-pattern-solid flowchart-link" style="" marker-end="url(#mermaid-svg-30_flowchart-v2-pointEnd)"/></g><g class="edgeLabels"><g class="edgeLabel"><g class="label" transform="translate(0, 0)"><foreignObject width="0" height="0"><div xmlns="http://www.w3.org/1999/xhtml" class="labelBkg" style="display: table-cell; white-space: nowrap; line-height: 1.5; max-width: 200px; text-align: center;"><span class="edgeLabel"></span></div></foreignObject></g></g><g class="edgeLabel" transform="translate(350.5703125, 251)"><g class="label" transform="translate(-64.0859375, -12)"><foreignObject width="128.171875" height="24"><div xmlns="http://www.w3.org/1999/xhtml" class="labelBkg" style="display: table-cell; white-space: nowrap; line-height: 1.5; max-width: 200px; text-align: center;"><span class="edgeLabel"><p>Delegates &amp; Plans</p></span></div></foreignObject></g></g><g class="edgeLabel"><g class="label" transform="translate(0, 0)"><foreignObject width="0" height="0"><div xmlns="http://www.w3.org/1999/xhtml" class="labelBkg" style="display: table-cell; white-space: nowrap; line-height: 1.5; max-width: 200px; text-align: center;"><span class="edgeLabel"></span></div></foreignObject></g></g><g class="edgeLabel" transform="translate(95.21484375, 531)"><g class="label" transform="translate(-49.6875, -12)"><foreignObject width="99.375" height="24"><div xmlns="http://www.w3.org/1999/xhtml" class="labelBkg" style="display: table-cell; white-space: nowrap; line-height: 1.5; max-width: 200px; text-align: center;"><span class="edgeLabel"><p>Parallel Batch</p></span></div></foreignObject></g></g><g class="edgeLabel" transform="translate(350.5703125, 531)"><g class="label" transform="translate(-49.6875, -12)"><foreignObject width="99.375" height="24"><div xmlns="http://www.w3.org/1999/xhtml" class="labelBkg" style="display: table-cell; white-space: nowrap; line-height: 1.5; max-width: 200px; text-align: center;"><span class="edgeLabel"><p>Parallel Batch</p></span></div></foreignObject></g></g><g class="edgeLabel" transform="translate(596.14453125, 531)"><g class="label" transform="translate(-49.6875, -12)"><foreignObject width="99.375" height="24"><div xmlns="http://www.w3.org/1999/xhtml" class="labelBkg" style="display: table-cell; white-space: nowrap; line-height: 1.5; max-width: 200px; text-align: center;"><span class="edgeLabel"><p>Parallel Batch</p></span></div></foreignObject></g></g><g class="edgeLabel" transform="translate(142.4296875, 709)"><g class="label" transform="translate(-74.484375, -12)"><foreignObject width="148.96875" height="24"><div xmlns="http://www.w3.org/1999/xhtml" class="labelBkg" style="display: table-cell; white-space: nowrap; line-height: 1.5; max-width: 200px; text-align: center;"><span class="edgeLabel"><p>Tool Loop: write_file</p></span></div></foreignObject></g></g><g class="edgeLabel" transform="translate(433.0703125, 709)"><g class="label" transform="translate(-71.734375, -12)"><foreignObject width="143.46875" height="24"><div xmlns="http://www.w3.org/1999/xhtml" class="labelBkg" style="display: table-cell; white-space: nowrap; line-height: 1.5; max-width: 200px; text-align: center;"><span class="edgeLabel"><p>Tool Loop: read_file</p></span></div></foreignObject></g></g><g class="edgeLabel" transform="translate(689.53125, 709)"><g class="label" transform="translate(-69.890625, -12)"><foreignObject width="139.78125" height="24"><div xmlns="http://www.w3.org/1999/xhtml" class="labelBkg" style="display: table-cell; white-space: nowrap; line-height: 1.5; max-width: 200px; text-align: center;"><span class="edgeLabel"><p>Tool Loop: list_files</p></span></div></foreignObject></g></g><g class="edgeLabel" transform="translate(433.0703125, 837)"><g class="label" transform="translate(-56.2734375, -12)"><foreignObject width="112.546875" height="24"><div xmlns="http://www.w3.org/1999/xhtml" class="labelBkg" style="display: table-cell; white-space: nowrap; line-height: 1.5; max-width: 200px; text-align: center;"><span class="edgeLabel"><p>Record Changes</p></span></div></foreignObject></g></g><g class="edgeLabel" transform="translate(177.2734375, 379)"><g class="label" transform="translate(-51.203125, -12)"><foreignObject width="102.40625" height="24"><div xmlns="http://www.w3.org/1999/xhtml" class="labelBkg" style="display: table-cell; white-space: nowrap; line-height: 1.5; max-width: 200px; text-align: center;"><span class="edgeLabel"><p>Return Results</p></span></div></foreignObject></g></g><g class="edgeLabel" transform="translate(526.45703125, 379)"><g class="label" transform="translate(-51.203125, -12)"><foreignObject width="102.40625" height="24"><div xmlns="http://www.w3.org/1999/xhtml" class="labelBkg" style="display: table-cell; white-space: nowrap; line-height: 1.5; max-width: 200px; text-align: center;"><span class="edgeLabel"><p>Return Results</p></span></div></foreignObject></g></g><g class="edgeLabel" transform="translate(749.3359375, 379)"><g class="label" transform="translate(-51.203125, -12)"><foreignObject width="102.40625" height="24"><div xmlns="http://www.w3.org/1999/xhtml" class="labelBkg" style="display: table-cell; white-space: nowrap; line-height: 1.5; max-width: 200px; text-align: center;"><span class="edgeLabel"><p>Return Results</p></span></div></foreignObject></g></g><g class="edgeLabel" transform="translate(471.4124, 123.73748)"><g class="label" transform="translate(-57.578125, -12)"><foreignObject width="115.15625" height="24"><div xmlns="http://www.w3.org/1999/xhtml" class="labelBkg" style="display: table-cell; white-space: nowrap; line-height: 1.5; max-width: 200px; text-align: center;"><span class="edgeLabel"><p>Synthesize Final</p></span></div></foreignObject></g></g></g><g class="nodes"><g class="node default" id="flowchart-User-0" transform="translate(433.0703125, 47)"><rect class="basic label-container" style="" x="-130" y="-39" width="260" height="78"/><g class="label" style="" transform="translate(-100, -24)"><rect/><foreignObject width="200" height="48"><div xmlns="http://www.w3.org/1999/xhtml" style="display: table; white-space: break-spaces; line-height: 1.5; max-width: 200px; text-align: center; width: 200px;"><span class="nodeLabel"><p>Kullanıcı Hedefi / Objective</p></span></div></foreignObject></g></g><g class="node default" id="flowchart-Orc-1" transform="translate(433.0703125, 187)"><rect class="basic label-container" style="" x="-95.96875" y="-27" width="191.9375" height="54"/><g class="label" style="" transform="translate(-65.96875, -12)"><rect/><foreignObject width="131.9375" height="24"><div xmlns="http://www.w3.org/1999/xhtml" style="display: table-cell; white-space: nowrap; line-height: 1.5; max-width: 200px; text-align: center;"><span class="nodeLabel"><p>Orchestrator Ajanı</p></span></div></foreignObject></g></g><g class="node default" id="flowchart-Dec-2" transform="translate(350.5703125, 315)"><rect class="basic label-container" style="" x="-100.0859375" y="-27" width="200.171875" height="54"/><g class="label" style="" transform="translate(-70.0859375, -12)"><rect/><foreignObject width="140.171875" height="24"><div xmlns="http://www.w3.org/1999/xhtml" style="display: table-cell; white-space: nowrap; line-height: 1.5; max-width: 200px; text-align: center;"><span class="nodeLabel"><p>Task Decomposition</p></span></div></foreignObject></g></g><g class="node default" id="flowchart-TQ-3" transform="translate(350.5703125, 455)"><rect class="basic label-container" style="" x="-130" y="-39" width="260" height="78"/><g class="label" style="" transform="translate(-100, -24)"><rect/><foreignObject width="200" height="48"><div xmlns="http://www.w3.org/1999/xhtml" style="display: table; white-space: break-spaces; line-height: 1.5; max-width: 200px; text-align: center; width: 200px;"><span class="nodeLabel"><p>Task Queue &amp; Dependency Graph</p></span></div></foreignObject></g></g><g class="node default" id="flowchart-S1-4" transform="translate(142.4296875, 620)"><rect class="basic label-container" style="" x="-99.4296875" y="-27" width="198.859375" height="54"/><g class="label" style="" transform="translate(-69.4296875, -12)"><rect/><foreignObject width="138.859375" height="24"><div xmlns="http://www.w3.org/1999/xhtml" style="display: table-cell; white-space: nowrap; line-height: 1.5; max-width: 200px; text-align: center;"><span class="nodeLabel"><p>Specialist: Backend</p></span></div></foreignObject></g></g><g class="node default" id="flowchart-S2-5" transform="translate(433.0703125, 620)"><rect class="basic label-container" style="" x="-101.8515625" y="-27" width="203.703125" height="54"/><g class="label" style="" transform="translate(-71.8515625, -12)"><rect/><foreignObject width="143.703125" height="24"><div xmlns="http://www.w3.org/1999/xhtml" style="display: table-cell; white-space: nowrap; line-height: 1.5; max-width: 200px; text-align: center;"><span class="nodeLabel"><p>Specialist: Frontend</p></span></div></foreignObject></g></g><g class="node default" id="flowchart-S3-6" transform="translate(689.53125, 620)"><rect class="basic label-container" style="" x="-104.609375" y="-27" width="209.21875" height="54"/><g class="label" style="" transform="translate(-74.609375, -12)"><rect/><foreignObject width="149.21875" height="24"><div xmlns="http://www.w3.org/1999/xhtml" style="display: table-cell; white-space: nowrap; line-height: 1.5; max-width: 200px; text-align: center;"><span class="nodeLabel"><p>Specialist: QA / Docs</p></span></div></foreignObject></g></g><g class="node default" id="flowchart-FileSys-7" transform="translate(433.0703125, 773)"><rect class="basic label-container" style="" x="-123.5390625" y="-27" width="247.078125" height="54"/><g class="label" style="" transform="translate(-93.5390625, -12)"><rect/><foreignObject width="187.078125" height="24"><div xmlns="http://www.w3.org/1999/xhtml" style="display: table-cell; white-space: nowrap; line-height: 1.5; max-width: 200px; text-align: center;"><span class="nodeLabel"><p>Workspace &amp; File Changes</p></span></div></foreignObject></g></g><g class="node default" id="flowchart-Mem-8" transform="translate(433.0703125, 913)"><rect class="basic label-container" style="" x="-130" y="-39" width="260" height="78"/><g class="label" style="" transform="translate(-100, -24)"><rect/><foreignObject width="200" height="48"><div xmlns="http://www.w3.org/1999/xhtml" style="display: table; white-space: break-spaces; line-height: 1.5; max-width: 200px; text-align: center; width: 200px;"><span class="nodeLabel"><p>Agent Memories &amp; Run Steps</p></span></div></foreignObject></g></g></g></g></g></svg>