<?xml version="1.0" encoding="UTF-8"?>
<svg xmlns:xhtml="http://www.w3.org/1999/xhtml" xmlns:xlink="http://www.w3.org/1999/xlink" xmlns="http://www.w3.org/2000/svg" id="mermaid-svg-9" width="100%" class="flowchart" style="max-width: 100%;" viewBox="-68.86672363281251 -68.86672363281251 1777.9053222656248 1515.0679199218748" height="100%"><style>#mermaid-svg-9{font-family:"trebuchet ms",verdana,arial,sans-serif;font-size:16px;fill:#ccc;}@keyframes edge-animation-frame{from{stroke-dashoffset:0;}}@keyframes dash{to{stroke-dashoffset:0;}}#mermaid-svg-9 .edge-animation-slow{stroke-dasharray:9,5!important;stroke-dashoffset:900;animation:dash 50s linear infinite;stroke-linecap:round;}#mermaid-svg-9 .edge-animation-fast{stroke-dasharray:9,5!important;stroke-dashoffset:900;animation:dash 20s linear infinite;stroke-linecap:round;}#mermaid-svg-9 .error-icon{fill:#a44141;}#mermaid-svg-9 .error-text{fill:#ddd;stroke:#ddd;}#mermaid-svg-9 .edge-thickness-normal{stroke-width:1px;}#mermaid-svg-9 .edge-thickness-thick{stroke-width:3.5px;}#mermaid-svg-9 .edge-pattern-solid{stroke-dasharray:0;}#mermaid-svg-9 .edge-thickness-invisible{stroke-width:0;fill:none;}#mermaid-svg-9 .edge-pattern-dashed{stroke-dasharray:3;}#mermaid-svg-9 .edge-pattern-dotted{stroke-dasharray:2;}#mermaid-svg-9 .marker{fill:lightgrey;stroke:lightgrey;}#mermaid-svg-9 .marker.cross{stroke:lightgrey;}#mermaid-svg-9 svg{font-family:"trebuchet ms",verdana,arial,sans-serif;font-size:16px;}#mermaid-svg-9 p{margin:0;}#mermaid-svg-9 .label{font-family:"trebuchet ms",verdana,arial,sans-serif;color:#ccc;}#mermaid-svg-9 .cluster-label text{fill:#F9FFFE;}#mermaid-svg-9 .cluster-label span{color:#F9FFFE;}#mermaid-svg-9 .cluster-label span p{background-color:transparent;}#mermaid-svg-9 .label text,#mermaid-svg-9 span{fill:#ccc;color:#ccc;}#mermaid-svg-9 .node rect,#mermaid-svg-9 .node circle,#mermaid-svg-9 .node ellipse,#mermaid-svg-9 .node polygon,#mermaid-svg-9 .node path{fill:#1f2020;stroke:#ccc;stroke-width:1px;}#mermaid-svg-9 .rough-node .label text,#mermaid-svg-9 .node .label text,#mermaid-svg-9 .image-shape .label,#mermaid-svg-9 .icon-shape .label{text-anchor:middle;}#mermaid-svg-9 .node .katex path{fill:#000;stroke:#000;stroke-width:1px;}#mermaid-svg-9 .rough-node .label,#mermaid-svg-9 .node .label,#mermaid-svg-9 .image-shape .label,#mermaid-svg-9 .icon-shape .label{text-align:center;}#mermaid-svg-9 .node.clickable{cursor:pointer;}#mermaid-svg-9 .root .anchor path{fill:lightgrey!important;stroke-width:0;stroke:lightgrey;}#mermaid-svg-9 .arrowheadPath{fill:lightgrey;}#mermaid-svg-9 .edgePath .path{stroke:lightgrey;stroke-width:2.0px;}#mermaid-svg-9 .flowchart-link{stroke:lightgrey;fill:none;}#mermaid-svg-9 .edgeLabel{background-color:hsl(0, 0%, 34.4117647059%);text-align:center;}#mermaid-svg-9 .edgeLabel p{background-color:hsl(0, 0%, 34.4117647059%);}#mermaid-svg-9 .edgeLabel rect{opacity:0.5;background-color:hsl(0, 0%, 34.4117647059%);fill:hsl(0, 0%, 34.4117647059%);}#mermaid-svg-9 .labelBkg{background-color:rgba(87.75, 87.75, 87.75, 0.5);}#mermaid-svg-9 .cluster rect{fill:hsl(180, 1.5873015873%, 28.3529411765%);stroke:rgba(255, 255, 255, 0.25);stroke-width:1px;}#mermaid-svg-9 .cluster text{fill:#F9FFFE;}#mermaid-svg-9 .cluster span{color:#F9FFFE;}#mermaid-svg-9 div.mermaidTooltip{position:absolute;text-align:center;max-width:200px;padding:2px;font-family:"trebuchet ms",verdana,arial,sans-serif;font-size:12px;background:hsl(20, 1.5873015873%, 12.3529411765%);border:1px solid rgba(255, 255, 255, 0.25);border-radius:2px;pointer-events:none;z-index:100;}#mermaid-svg-9 .flowchartTitleText{text-anchor:middle;font-size:18px;fill:#ccc;}#mermaid-svg-9 rect.text{fill:none;stroke-width:0;}#mermaid-svg-9 .icon-shape,#mermaid-svg-9 .image-shape{background-color:hsl(0, 0%, 34.4117647059%);text-align:center;}#mermaid-svg-9 .icon-shape p,#mermaid-svg-9 .image-shape p{background-color:hsl(0, 0%, 34.4117647059%);padding:2px;}#mermaid-svg-9 .icon-shape rect,#mermaid-svg-9 .image-shape rect{opacity:0.5;background-color:hsl(0, 0%, 34.4117647059%);fill:hsl(0, 0%, 34.4117647059%);}#mermaid-svg-9 .label-icon{display:inline-block;height:1em;overflow:visible;vertical-align:-0.125em;}#mermaid-svg-9 .node .label-icon path{fill:currentColor;stroke:revert;stroke-width:revert;}#mermaid-svg-9 :root{--mermaid-font-family:"trebuchet ms",verdana,arial,sans-serif;}</style><g><marker id="mermaid-svg-9_flowchart-v2-pointEnd" class="marker flowchart-v2" viewBox="0 0 10 10" refX="5" refY="5" markerUnits="userSpaceOnUse" markerWidth="8" markerHeight="8" orient="auto"><path d="M 0 0 L 10 5 L 0 10 z" class="arrowMarkerPath" style="stroke-width: 1; stroke-dasharray: 1, 0;"/></marker><marker id="mermaid-svg-9_flowchart-v2-pointStart" class="marker flowchart-v2" viewBox="0 0 10 10" refX="4.5" refY="5" markerUnits="userSpaceOnUse" markerWidth="8" markerHeight="8" orient="auto"><path d="M 0 5 L 10 10 L 10 0 z" class="arrowMarkerPath" style="stroke-width: 1; stroke-dasharray: 1, 0;"/></marker><marker id="mermaid-svg-9_flowchart-v2-circleEnd" class="marker flowchart-v2" viewBox="0 0 10 10" refX="11" refY="5" markerUnits="userSpaceOnUse" markerWidth="11" markerHeight="11" orient="auto"><circle cx="5" cy="5" r="5" class="arrowMarkerPath" style="stroke-width: 1; stroke-dasharray: 1, 0;"/></marker><marker id="mermaid-svg-9_flowchart-v2-circleStart" class="marker flowchart-v2" viewBox="0 0 10 10" refX="-1" refY="5" markerUnits="userSpaceOnUse" markerWidth="11" markerHeight="11" orient="auto"><circle cx="5" cy="5" r="5" class="arrowMarkerPath" style="stroke-width: 1; stroke-dasharray: 1, 0;"/></marker><marker id="mermaid-svg-9_flowchart-v2-crossEnd" class="marker cross flowchart-v2" viewBox="0 0 11 11" refX="12" refY="5.2" markerUnits="userSpaceOnUse" markerWidth="11" markerHeight="11" orient="auto"><path d="M 1,1 l 9,9 M 10,1 l -9,9" class="arrowMarkerPath" style="stroke-width: 2; stroke-dasharray: 1, 0;"/></marker><marker id="mermaid-svg-9_flowchart-v2-crossStart" class="marker cross flowchart-v2" viewBox="0 0 11 11" refX="-1" refY="5.2" markerUnits="userSpaceOnUse" markerWidth="11" markerHeight="11" orient="auto"><path d="M 1,1 l 9,9 M 10,1 l -9,9" class="arrowMarkerPath" style="stroke-width: 2; stroke-dasharray: 1, 0;"/></marker><g class="root"><g class="clusters"><g class="cluster" id="subGraph3" data-look="classic"><rect style="" x="599.921875" y="1241.3345031738281" width="973.265625" height="128"/><g class="cluster-label" transform="translate(1027.3125, 1241.3345031738281)"><foreignObject width="118.484375" height="24"><div xmlns="http://www.w3.org/1999/xhtml" style="display: table-cell; white-space: nowrap; line-height: 1.5; max-width: 200px; text-align: center;"><span class="nodeLabel"><p>LLM Sağlayıcıları</p></span></div></foreignObject></g></g><g class="cluster" id="subGraph2" data-look="classic"><rect style="" x="8" y="339" width="562.59765625" height="259.3345031738281"/><g class="cluster-label" transform="translate(243.259765625, 339)"><foreignObject width="92.078125" height="24"><div xmlns="http://www.w3.org/1999/xhtml" style="display: table-cell; white-space: nowrap; line-height: 1.5; max-width: 200px; text-align: center;"><span class="nodeLabel"><p>Alt Sistemler</p></span></div></foreignObject></g></g><g class="cluster" id="subGraph1" data-look="classic"><rect style="" x="590.59765625" y="186" width="881.26171875" height="1005.3345031738281"/><g class="cluster-label" transform="translate(931.228515625, 186)"><foreignObject width="200" height="48"><div xmlns="http://www.w3.org/1999/xhtml" style="display: table; white-space: break-spaces; line-height: 1.5; max-width: 200px; text-align: center; width: 200px;"><span class="nodeLabel"><p>Çekirdek &amp; Optimizasyon (Core)</p></span></div></foreignObject></g></g><g class="cluster" id="subGraph0" data-look="classic"><rect style="" x="602.40625" y="8" width="863.203125" height="128"/><g class="cluster-label" transform="translate(950.875, 8)"><foreignObject width="166.265625" height="24"><div xmlns="http://www.w3.org/1999/xhtml" style="display: table-cell; white-space: nowrap; line-height: 1.5; max-width: 200px; text-align: center;"><span class="nodeLabel"><p>Giriş Kanalları (Callers)</p></span></div></foreignObject></g></g></g><g class="edgePaths"><path d="M724.008,99L724.008,105.167C724.008,111.333,724.008,123.667,724.008,134C724.008,144.333,724.008,152.667,724.008,161C724.008,169.333,724.008,177.667,751.546,187.725C779.084,197.783,834.161,209.567,861.699,215.458L889.237,221.35" id="L_UI_CM_0" class="edge-thickness-normal edge-pattern-solid edge-thickness-normal edge-pattern-solid flowchart-link" style="" marker-end="url(#mermaid-svg-9_flowchart-v2-pointEnd)"/><path d="M990.609,111L990.609,115.167C990.609,119.333,990.609,127.667,990.609,136C990.609,144.333,990.609,152.667,990.609,161C990.609,169.333,990.609,177.667,992.426,185.406C994.242,193.145,997.875,200.29,999.691,203.862L1001.507,207.434" id="L_Ext_CM_0" class="edge-thickness-normal edge-pattern-solid edge-thickness-normal edge-pattern-solid flowchart-link" style="" marker-end="url(#mermaid-svg-9_flowchart-v2-pointEnd)"/><path d="M1300.609,111L1300.609,115.167C1300.609,119.333,1300.609,127.667,1300.609,136C1300.609,144.333,1300.609,152.667,1300.609,161C1300.609,169.333,1300.609,177.667,1276.682,187.352C1252.755,197.038,1204.901,208.077,1180.973,213.596L1157.046,219.115" id="L_MCP_CM_0" class="edge-thickness-normal edge-pattern-solid edge-thickness-normal edge-pattern-solid flowchart-link" style="" marker-end="url(#mermaid-svg-9_flowchart-v2-pointEnd)"/><path d="M1076.238,289L1081.91,293.167C1087.582,297.333,1098.926,305.667,1104.598,314C1110.27,322.333,1110.27,330.667,1110.27,340.333C1110.27,350,1110.27,361,1110.27,366.5L1110.27,372" id="L_CM_L0_0" class="edge-thickness-normal edge-pattern-solid edge-thickness-normal edge-pattern-solid flowchart-link" style="" marker-end="url(#mermaid-svg-9_flowchart-v2-pointEnd)"/><path d="M1110.27,430L1110.27,436.167C1110.27,442.333,1110.27,454.667,1110.27,464.611C1110.27,474.556,1110.27,482.112,1110.27,485.889L1110.27,489.667" id="L_L0_L1_0" class="edge-thickness-normal edge-pattern-solid edge-thickness-normal edge-pattern-solid flowchart-link" style="" marker-end="url(#mermaid-svg-9_flowchart-v2-pointEnd)"/><path d="M1046.014,571.667L1038.692,576.112C1031.369,580.556,1016.724,589.445,1009.401,600.057C1002.078,610.668,1002.078,623.001,1002.078,634.668C1002.078,646.335,1002.078,657.335,1002.078,662.835L1002.078,668.335" id="L_L1_L2_0" class="edge-thickness-normal edge-pattern-solid edge-thickness-normal edge-pattern-solid flowchart-link" style="" marker-end="url(#mermaid-svg-9_flowchart-v2-pointEnd)"/><path d="M910.659,726.335L896.551,730.501C882.443,734.668,854.227,743.001,840.12,750.668C826.012,758.335,826.012,765.335,826.012,768.835L826.012,772.335" id="L_L2_L3_0" class="edge-thickness-normal edge-pattern-solid edge-thickness-normal edge-pattern-solid flowchart-link" style="" marker-end="url(#mermaid-svg-9_flowchart-v2-pointEnd)"/><path d="M826.012,830.335L826.012,836.501C826.012,842.668,826.012,855.001,826.012,866.668C826.012,878.335,826.012,889.335,826.012,894.835L826.012,900.335" id="L_L3_L4_0" class="edge-thickness-normal edge-pattern-solid edge-thickness-normal edge-pattern-solid flowchart-link" style="" marker-end="url(#mermaid-svg-9_flowchart-v2-pointEnd)"/><path d="M826.012,958.335L826.012,962.501C826.012,966.668,826.012,975.001,855.808,984.73C885.605,994.46,945.198,1005.585,974.994,1011.148L1004.791,1016.71" id="L_L4_UC_0" class="edge-thickness-normal edge-pattern-solid edge-thickness-normal edge-pattern-solid flowchart-link" style="" marker-end="url(#mermaid-svg-9_flowchart-v2-pointEnd)"/><path d="M1240.27,567.987L1258.886,573.045C1277.503,578.103,1314.736,588.219,1333.352,599.443C1351.969,610.668,1351.969,623.001,1377.144,636.574C1402.32,650.147,1452.671,664.96,1477.846,672.366L1503.022,679.773" id="L_L1_Response_0" class="edge-thickness-normal edge-pattern-dotted edge-thickness-normal edge-pattern-solid flowchart-link" style="" marker-end="url(#mermaid-svg-9_flowchart-v2-pointEnd)"/><path d="M1083.386,726.335L1095.934,730.501C1108.482,734.668,1133.577,743.001,1146.124,755.835C1158.672,768.668,1158.672,786.001,1158.672,805.335C1158.672,824.668,1158.672,846.001,1158.672,867.335C1158.672,888.668,1158.672,910.001,1158.672,929.335C1158.672,948.668,1158.672,966.001,1154.816,978.373C1150.96,990.744,1143.248,998.154,1139.392,1001.858L1135.537,1005.563" id="L_L2_UC_0" class="edge-thickness-normal edge-pattern-dotted edge-thickness-normal edge-pattern-solid flowchart-link" style="" marker-end="url(#mermaid-svg-9_flowchart-v2-pointEnd)"/><path d="M919.457,817.415L974.674,825.735C1029.892,834.055,1140.327,850.695,1195.544,869.681C1250.762,888.668,1250.762,910.001,1250.762,929.335C1250.762,948.668,1250.762,966.001,1239.674,978.611C1228.587,991.221,1206.412,999.108,1195.324,1003.051L1184.237,1006.994" id="L_L3_UC_0" class="edge-thickness-normal edge-pattern-dotted edge-thickness-normal edge-pattern-solid flowchart-link" style="" marker-end="url(#mermaid-svg-9_flowchart-v2-pointEnd)"/><path d="M1104.551,1062.335L1104.551,1066.501C1104.551,1070.668,1104.551,1079.001,1104.551,1086.668C1104.551,1094.335,1104.551,1101.335,1104.551,1104.835L1104.551,1108.335" id="L_UC_PR_0" class="edge-thickness-normal edge-pattern-solid edge-thickness-normal edge-pattern-solid flowchart-link" style="" marker-end="url(#mermaid-svg-9_flowchart-v2-pointEnd)"/><path d="M1014.066,1151.784L966.157,1158.376C918.247,1164.968,822.428,1178.151,774.519,1188.909C726.609,1199.668,726.609,1208.001,726.609,1216.335C726.609,1224.668,726.609,1233.001,726.609,1242.668C726.609,1252.335,726.609,1263.335,726.609,1268.835L726.609,1274.335" id="L_PR_AN_0" class="edge-thickness-normal edge-pattern-solid edge-thickness-normal edge-pattern-solid flowchart-link" style="" marker-end="url(#mermaid-svg-9_flowchart-v2-pointEnd)"/><path d="M1019.5,1166.335L1006.375,1170.501C993.25,1174.668,967,1183.001,953.875,1191.335C940.75,1199.668,940.75,1208.001,940.75,1216.335C940.75,1224.668,940.75,1233.001,940.75,1242.668C940.75,1252.335,940.75,1263.335,940.75,1268.835L940.75,1274.335" id="L_PR_OP_0" class="edge-thickness-normal edge-pattern-solid edge-thickness-normal edge-pattern-solid flowchart-link" style="" marker-end="url(#mermaid-svg-9_flowchart-v2-pointEnd)"/><path d="M1125.914,1166.335L1129.211,1170.501C1132.508,1174.668,1139.102,1183.001,1142.398,1191.335C1145.695,1199.668,1145.695,1208.001,1145.695,1216.335C1145.695,1224.668,1145.695,1233.001,1145.695,1242.668C1145.695,1252.335,1145.695,1263.335,1145.695,1268.835L1145.695,1274.335" id="L_PR_GM_0" class="edge-thickness-normal edge-pattern-solid edge-thickness-normal edge-pattern-solid flowchart-link" style="" marker-end="url(#mermaid-svg-9_flowchart-v2-pointEnd)"/><path d="M1195.035,1154.831L1230.561,1160.915C1266.086,1166.999,1337.137,1179.167,1372.662,1189.417C1408.188,1199.668,1408.188,1208.001,1408.188,1216.335C1408.188,1224.668,1408.188,1233.001,1408.188,1240.668C1408.188,1248.335,1408.188,1255.335,1408.188,1258.835L1408.188,1262.335" id="L_PR_CUS_0" class="edge-thickness-normal edge-pattern-solid edge-thickness-normal edge-pattern-solid flowchart-link" style="" marker-end="url(#mermaid-svg-9_flowchart-v2-pointEnd)"/><path d="M193.344,442L189.736,446.167C186.129,450.333,178.914,458.667,175.307,468.611C171.699,478.556,171.699,490.112,171.699,495.889L171.699,501.667" id="L_EE_WS_0" class="edge-thickness-normal edge-pattern-solid edge-thickness-normal edge-pattern-solid flowchart-link" style="" marker-end="url(#mermaid-svg-9_flowchart-v2-pointEnd)"/><path d="M350.805,442L364.021,446.167C377.236,450.333,403.667,458.667,416.882,466.333C430.098,474,430.098,481,430.098,484.5L430.098,488" id="L_EE_DB_0" class="edge-thickness-normal edge-pattern-solid edge-thickness-normal edge-pattern-solid flowchart-link" style="" marker-end="url(#mermaid-svg-9_flowchart-v2-pointEnd)"/><path d="M893.148,273.768L856.473,280.473C819.798,287.179,746.448,300.589,709.773,311.461C673.098,322.333,673.098,330.667,621.093,342.296C569.088,353.926,465.078,368.851,413.074,376.314L361.069,383.777" id="L_CM_EE_0" class="edge-thickness-normal edge-pattern-solid edge-thickness-normal edge-pattern-solid flowchart-link" style="" marker-end="url(#mermaid-svg-9_flowchart-v2-pointEnd)"/><path d="M928.184,289L918.038,293.167C907.892,297.333,887.6,305.667,877.454,314C867.309,322.333,867.309,330.667,867.309,345.5C867.309,360.333,867.309,381.667,867.309,403C867.309,424.333,867.309,445.667,808.599,465.151C749.89,484.636,632.472,502.272,573.763,511.089L515.053,519.907" id="L_CM_DB_0" class="edge-thickness-normal edge-pattern-solid edge-thickness-normal edge-pattern-solid flowchart-link" style="" marker-end="url(#mermaid-svg-9_flowchart-v2-pointEnd)"/></g><g class="edgeLabels"><g class="edgeLabel"><g class="label" transform="translate(0, 0)"><foreignObject width="0" height="0"><div xmlns="http://www.w3.org/1999/xhtml" class="labelBkg" style="display: table-cell; white-space: nowrap; line-height: 1.5; max-width: 200px; text-align: center;"><span class="edgeLabel"></span></div></foreignObject></g></g><g class="edgeLabel"><g class="label" transform="translate(0, 0)"><foreignObject width="0" height="0"><div xmlns="http://www.w3.org/1999/xhtml" class="labelBkg" style="display: table-cell; white-space: nowrap; line-height: 1.5; max-width: 200px; text-align: center;"><span class="edgeLabel"></span></div></foreignObject></g></g><g class="edgeLabel"><g class="label" transform="translate(0, 0)"><foreignObject width="0" height="0"><div xmlns="http://www.w3.org/1999/xhtml" class="labelBkg" style="display: table-cell; white-space: nowrap; line-height: 1.5; max-width: 200px; text-align: center;"><span class="edgeLabel"></span></div></foreignObject></g></g><g class="edgeLabel"><g class="label" transform="translate(0, 0)"><foreignObject width="0" height="0"><div xmlns="http://www.w3.org/1999/xhtml" class="labelBkg" style="display: table-cell; white-space: nowrap; line-height: 1.5; max-width: 200px; text-align: center;"><span class="edgeLabel"></span></div></foreignObject></g></g><g class="edgeLabel"><g class="label" transform="translate(0, 0)"><foreignObject width="0" height="0"><div xmlns="http://www.w3.org/1999/xhtml" class="labelBkg" style="display: table-cell; white-space: nowrap; line-height: 1.5; max-width: 200px; text-align: center;"><span class="edgeLabel"></span></div></foreignObject></g></g><g class="edgeLabel"><g class="label" transform="translate(0, 0)"><foreignObject width="0" height="0"><div xmlns="http://www.w3.org/1999/xhtml" class="labelBkg" style="display: table-cell; white-space: nowrap; line-height: 1.5; max-width: 200px; text-align: center;"><span class="edgeLabel"></span></div></foreignObject></g></g><g class="edgeLabel"><g class="label" transform="translate(0, 0)"><foreignObject width="0" height="0"><div xmlns="http://www.w3.org/1999/xhtml" class="labelBkg" style="display: table-cell; white-space: nowrap; line-height: 1.5; max-width: 200px; text-align: center;"><span class="edgeLabel"></span></div></foreignObject></g></g><g class="edgeLabel"><g class="label" transform="translate(0, 0)"><foreignObject width="0" height="0"><div xmlns="http://www.w3.org/1999/xhtml" class="labelBkg" style="display: table-cell; white-space: nowrap; line-height: 1.5; max-width: 200px; text-align: center;"><span class="edgeLabel"></span></div></foreignObject></g></g><g class="edgeLabel"><g class="label" transform="translate(0, 0)"><foreignObject width="0" height="0"><div xmlns="http://www.w3.org/1999/xhtml" class="labelBkg" style="display: table-cell; white-space: nowrap; line-height: 1.5; max-width: 200px; text-align: center;"><span class="edgeLabel"></span></div></foreignObject></g></g><g class="edgeLabel" transform="translate(1351.96875, 635.3345031738281)"><g class="label" transform="translate(-34.78125, -12)"><foreignObject width="69.5625" height="24"><div xmlns="http://www.w3.org/1999/xhtml" class="labelBkg" style="display: table-cell; white-space: nowrap; line-height: 1.5; max-width: 200px; text-align: center;"><span class="edgeLabel"><p>Cache Hit</p></span></div></foreignObject></g></g><g class="edgeLabel" transform="translate(1158.671875, 867.3345031738281)"><g class="label" transform="translate(-39.671875, -12)"><foreignObject width="79.34375" height="24"><div xmlns="http://www.w3.org/1999/xhtml" class="labelBkg" style="display: table-cell; white-space: nowrap; line-height: 1.5; max-width: 200px; text-align: center;"><span class="edgeLabel"><p>Downgrade</p></span></div></foreignObject></g></g><g class="edgeLabel" transform="translate(1250.76171875, 931.3345031738281)"><g class="label" transform="translate(-52.359375, -12)"><foreignObject width="104.71875" height="24"><div xmlns="http://www.w3.org/1999/xhtml" class="labelBkg" style="display: table-cell; white-space: nowrap; line-height: 1.5; max-width: 200px; text-align: center;"><span class="edgeLabel"><p>Cached Tokens</p></span></div></foreignObject></g></g><g class="edgeLabel"><g class="label" transform="translate(0, 0)"><foreignObject width="0" height="0"><div xmlns="http://www.w3.org/1999/xhtml" class="labelBkg" style="display: table-cell; white-space: nowrap; line-height: 1.5; max-width: 200px; text-align: center;"><span class="edgeLabel"></span></div></foreignObject></g></g><g class="edgeLabel"><g class="label" transform="translate(0, 0)"><foreignObject width="0" height="0"><div xmlns="http://www.w3.org/1999/xhtml" class="labelBkg" style="display: table-cell; white-space: nowrap; line-height: 1.5; max-width: 200px; text-align: center;"><span class="edgeLabel"></span></div></foreignObject></g></g><g class="edgeLabel"><g class="label" transform="translate(0, 0)"><foreignObject width="0" height="0"><div xmlns="http://www.w3.org/1999/xhtml" class="labelBkg" style="display: table-cell; white-space: nowrap; line-height: 1.5; max-width: 200px; text-align: center;"><span class="edgeLabel"></span></div></foreignObject></g></g><g class="edgeLabel"><g class="label" transform="translate(0, 0)"><foreignObject width="0" height="0"><div xmlns="http://www.w3.org/1999/xhtml" class="labelBkg" style="display: table-cell; white-space: nowrap; line-height: 1.5; max-width: 200px; text-align: center;"><span class="edgeLabel"></span></div></foreignObject></g></g><g class="edgeLabel"><g class="label" transform="translate(0, 0)"><foreignObject width="0" height="0"><div xmlns="http://www.w3.org/1999/xhtml" class="labelBkg" style="display: table-cell; white-space: nowrap; line-height: 1.5; max-width: 200px; text-align: center;"><span class="edgeLabel"></span></div></foreignObject></g></g><g class="edgeLabel"><g class="label" transform="translate(0, 0)"><foreignObject width="0" height="0"><div xmlns="http://www.w3.org/1999/xhtml" class="labelBkg" style="display: table-cell; white-space: nowrap; line-height: 1.5; max-width: 200px; text-align: center;"><span class="edgeLabel"></span></div></foreignObject></g></g><g class="edgeLabel"><g class="label" transform="translate(0, 0)"><foreignObject width="0" height="0"><div xmlns="http://www.w3.org/1999/xhtml" class="labelBkg" style="display: table-cell; white-space: nowrap; line-height: 1.5; max-width: 200px; text-align: center;"><span class="edgeLabel"></span></div></foreignObject></g></g><g class="edgeLabel"><g class="label" transform="translate(0, 0)"><foreignObject width="0" height="0"><div xmlns="http://www.w3.org/1999/xhtml" class="labelBkg" style="display: table-cell; white-space: nowrap; line-height: 1.5; max-width: 200px; text-align: center;"><span class="edgeLabel"></span></div></foreignObject></g></g><g class="edgeLabel"><g class="label" transform="translate(0, 0)"><foreignObject width="0" height="0"><div xmlns="http://www.w3.org/1999/xhtml" class="labelBkg" style="display: table-cell; white-space: nowrap; line-height: 1.5; max-width: 200px; text-align: center;"><span class="edgeLabel"></span></div></foreignObject></g></g></g><g class="nodes"><g class="node default" id="flowchart-UI-0" transform="translate(724.0078125, 72)"><rect class="basic label-container" style="" x="-86.6015625" y="-27" width="173.203125" height="54"/><g class="label" style="" transform="translate(-56.6015625, -12)"><rect/><foreignObject width="113.203125" height="24"><div xmlns="http://www.w3.org/1999/xhtml" style="display: table-cell; white-space: nowrap; line-height: 1.5; max-width: 200px; text-align: center;"><span class="nodeLabel"><p>UI / Chat &amp; Run</p></span></div></foreignObject></g></g><g class="node default" id="flowchart-Ext-1" transform="translate(990.609375, 72)"><rect class="basic label-container" style="" x="-130" y="-39" width="260" height="78"/><g class="label" style="" transform="translate(-100, -24)"><rect/><foreignObject width="200" height="48"><div xmlns="http://www.w3.org/1999/xhtml" style="display: table; white-space: break-spaces; line-height: 1.5; max-width: 200px; text-align: center; width: 200px;"><span class="nodeLabel"><p>Harici Uygulamalar / Gateway</p></span></div></foreignObject></g></g><g class="node default" id="flowchart-MCP-2" transform="translate(1300.609375, 72)"><rect class="basic label-container" style="" x="-130" y="-39" width="260" height="78"/><g class="label" style="" transform="translate(-100, -24)"><rect/><foreignObject width="200" height="48"><div xmlns="http://www.w3.org/1999/xhtml" style="display: table; white-space: break-spaces; line-height: 1.5; max-width: 200px; text-align: center; width: 200px;"><span class="nodeLabel"><p>MCP İstemcileri / Claude Code</p></span></div></foreignObject></g></g><g class="node default" id="flowchart-CM-3" transform="translate(1023.1484375, 250)"><rect class="basic label-container" style="" x="-130" y="-39" width="260" height="78"/><g class="label" style="" transform="translate(-100, -24)"><rect/><foreignObject width="200" height="48"><div xmlns="http://www.w3.org/1999/xhtml" style="display: table; white-space: break-spaces; line-height: 1.5; max-width: 200px; text-align: center; width: 200px;"><span class="nodeLabel"><p>Cost Middleware / Choke-point</p></span></div></foreignObject></g></g><g class="node default" id="flowchart-L0-4" transform="translate(1110.26953125, 403)"><rect class="basic label-container" style="" x="-119.2421875" y="-27" width="238.484375" height="54"/><g class="label" style="" transform="translate(-89.2421875, -12)"><rect/><foreignObject width="178.484375" height="24"><div xmlns="http://www.w3.org/1999/xhtml" style="display: table-cell; white-space: nowrap; line-height: 1.5; max-width: 200px; text-align: center;"><span class="nodeLabel"><p>L0: Context Compression</p></span></div></foreignObject></g></g><g class="node default" id="flowchart-L1-5" transform="translate(1110.26953125, 532.6672515869141)"><rect class="basic label-container" style="" x="-130" y="-39" width="260" height="78"/><g class="label" style="" transform="translate(-100, -24)"><rect/><foreignObject width="200" height="48"><div xmlns="http://www.w3.org/1999/xhtml" style="display: table; white-space: break-spaces; line-height: 1.5; max-width: 200px; text-align: center; width: 200px;"><span class="nodeLabel"><p>L1: Semantic Cache - Qdrant</p></span></div></foreignObject></g></g><g class="node default" id="flowchart-L2-6" transform="translate(1002.078125, 699.3345031738281)"><rect class="basic label-container" style="" x="-116.5859375" y="-27" width="233.171875" height="54"/><g class="label" style="" transform="translate(-86.5859375, -12)"><rect/><foreignObject width="173.171875" height="24"><div xmlns="http://www.w3.org/1999/xhtml" style="display: table-cell; white-space: nowrap; line-height: 1.5; max-width: 200px; text-align: center;"><span class="nodeLabel"><p>L2: Level Router - Haiku</p></span></div></foreignObject></g></g><g class="node default" id="flowchart-L3-7" transform="translate(826.01171875, 803.3345031738281)"><rect class="basic label-container" style="" x="-93.4453125" y="-27" width="186.890625" height="54"/><g class="label" style="" transform="translate(-63.4453125, -12)"><rect/><foreignObject width="126.890625" height="24"><div xmlns="http://www.w3.org/1999/xhtml" style="display: table-cell; white-space: nowrap; line-height: 1.5; max-width: 200px; text-align: center;"><span class="nodeLabel"><p>L3: Prompt Cache</p></span></div></foreignObject></g></g><g class="node default" id="flowchart-L4-8" transform="translate(826.01171875, 931.3345031738281)"><rect class="basic label-container" style="" x="-116.5859375" y="-27" width="233.171875" height="54"/><g class="label" style="" transform="translate(-86.5859375, -12)"><rect/><foreignObject width="173.171875" height="24"><div xmlns="http://www.w3.org/1999/xhtml" style="display: table-cell; white-space: nowrap; line-height: 1.5; max-width: 200px; text-align: center;"><span class="nodeLabel"><p>L4: Output Minimization</p></span></div></foreignObject></g></g><g class="node default" id="flowchart-UC-9" transform="translate(1104.55078125, 1035.3345031738281)"><rect class="basic label-container" style="" x="-95.828125" y="-27" width="191.65625" height="54"/><g class="label" style="" transform="translate(-65.828125, -12)"><rect/><foreignObject width="131.65625" height="24"><div xmlns="http://www.w3.org/1999/xhtml" style="display: table-cell; white-space: nowrap; line-height: 1.5; max-width: 200px; text-align: center;"><span class="nodeLabel"><p>Unified LLM Client</p></span></div></foreignObject></g></g><g class="node default" id="flowchart-PR-10" transform="translate(1104.55078125, 1139.3345031738281)"><rect class="basic label-container" style="" x="-90.484375" y="-27" width="180.96875" height="54"/><g class="label" style="" transform="translate(-60.484375, -12)"><rect/><foreignObject width="120.96875" height="24"><div xmlns="http://www.w3.org/1999/xhtml" style="display: table-cell; white-space: nowrap; line-height: 1.5; max-width: 200px; text-align: center;"><span class="nodeLabel"><p>Provider Registry</p></span></div></foreignObject></g></g><g class="node default" id="flowchart-EE-11" transform="translate(227.109375, 403)"><rect class="basic label-container" style="" x="-130" y="-39" width="260" height="78"/><g class="label" style="" transform="translate(-100, -24)"><rect/><foreignObject width="200" height="48"><div xmlns="http://www.w3.org/1999/xhtml" style="display: table; white-space: break-spaces; line-height: 1.5; max-width: 200px; text-align: center; width: 200px;"><span class="nodeLabel"><p>Execution Engine - Task Queue</p></span></div></foreignObject></g></g><g class="node default" id="flowchart-WS-12" transform="translate(171.69921875, 532.6672515869141)"><rect class="basic label-container" style="" x="-127.3984375" y="-27" width="254.796875" height="54"/><g class="label" style="" transform="translate(-97.3984375, -12)"><rect/><foreignObject width="194.796875" height="24"><div xmlns="http://www.w3.org/1999/xhtml" style="display: table-cell; white-space: nowrap; line-height: 1.5; max-width: 200px; text-align: center;"><span class="nodeLabel"><p>Workspace &amp; Dosya Sistemi</p></span></div></foreignObject></g></g><g class="node default" id="flowchart-DB-13" transform="translate(430.09765625, 532.6672515869141)"><path d="M0,14.11149825783972 a81,14.11149825783972 0,0,0 162,0 a81,14.11149825783972 0,0,0 -162,0 l0,53.11149825783972 a81,14.11149825783972 0,0,0 162,0 l0,-53.11149825783972" class="basic label-container" style="" transform="translate(-81, -40.667247386759584)"/><g class="label" style="" transform="translate(-73.5, -2)"><rect/><foreignObject width="147" height="24"><div xmlns="http://www.w3.org/1999/xhtml" style="display: table-cell; white-space: nowrap; line-height: 1.5; max-width: 200px; text-align: center;"><span class="nodeLabel"><p>SQLite / Postgres DB</p></span></div></foreignObject></g></g><g class="node default" id="flowchart-AN-14" transform="translate(726.609375, 1305.3345031738281)"><rect class="basic label-container" style="" x="-91.6875" y="-27" width="183.375" height="54"/><g class="label" style="" transform="translate(-61.6875, -12)"><rect/><foreignObject width="123.375" height="24"><div xmlns="http://www.w3.org/1999/xhtml" style="display: table-cell; white-space: nowrap; line-height: 1.5; max-width: 200px; text-align: center;"><span class="nodeLabel"><p>Anthropic Claude</p></span></div></foreignObject></g></g><g class="node default" id="flowchart-OP-15" transform="translate(940.75, 1305.3345031738281)"><rect class="basic label-container" style="" x="-72.453125" y="-27" width="144.90625" height="54"/><g class="label" style="" transform="translate(-42.453125, -12)"><rect/><foreignObject width="84.90625" height="24"><div xmlns="http://www.w3.org/1999/xhtml" style="display: table-cell; white-space: nowrap; line-height: 1.5; max-width: 200px; text-align: center;"><span class="nodeLabel"><p>OpenAI GPT</p></span></div></foreignObject></g></g><g class="node default" id="flowchart-GM-16" transform="translate(1145.6953125, 1305.3345031738281)"><rect class="basic label-container" style="" x="-82.4921875" y="-27" width="164.984375" height="54"/><g class="label" style="" transform="translate(-52.4921875, -12)"><rect/><foreignObject width="104.984375" height="24"><div xmlns="http://www.w3.org/1999/xhtml" style="display: table-cell; white-space: nowrap; line-height: 1.5; max-width: 200px; text-align: center;"><span class="nodeLabel"><p>Google Gemini</p></span></div></foreignObject></g></g><g class="node default" id="flowchart-CUS-17" transform="translate(1408.1875, 1305.3345031738281)"><rect class="basic label-container" style="" x="-130" y="-39" width="260" height="78"/><g class="label" style="" transform="translate(-100, -24)"><rect/><foreignObject width="200" height="48"><div xmlns="http://www.w3.org/1999/xhtml" style="display: table; white-space: break-spaces; line-height: 1.5; max-width: 200px; text-align: center; width: 200px;"><span class="nodeLabel"><p>Custom / DeepSeek / Ollama</p></span></div></foreignObject></g></g><g class="node default" id="flowchart-Response-32" transform="translate(1569.515625, 699.3345031738281)"><rect class="basic label-container" style="" x="-62.65625" y="-27" width="125.3125" height="54"/><g class="label" style="" transform="translate(-32.65625, -12)"><rect/><foreignObject width="65.3125" height="24"><div xmlns="http://www.w3.org/1999/xhtml" style="display: table-cell; white-space: nowrap; line-height: 1.5; max-width: 200px; text-align: center;"><span class="nodeLabel"><p>Response</p></span></div></foreignObject></g></g></g></g></g></svg>