<?xml version="1.0" encoding="UTF-8"?>
<svg xmlns:xhtml="http://www.w3.org/1999/xhtml" xmlns:xlink="http://www.w3.org/1999/xlink" xmlns="http://www.w3.org/2000/svg" id="mermaid-svg-44" width="100%" class="flowchart" style="max-width: 100%;" viewBox="-13.350000000000001 -13.350000000000001 2789.809375 293.70000000000005" height="100%"><style>#mermaid-svg-44{font-family:"trebuchet ms",verdana,arial,sans-serif;font-size:16px;fill:#ccc;}@keyframes edge-animation-frame{from{stroke-dashoffset:0;}}@keyframes dash{to{stroke-dashoffset:0;}}#mermaid-svg-44 .edge-animation-slow{stroke-dasharray:9,5!important;stroke-dashoffset:900;animation:dash 50s linear infinite;stroke-linecap:round;}#mermaid-svg-44 .edge-animation-fast{stroke-dasharray:9,5!important;stroke-dashoffset:900;animation:dash 20s linear infinite;stroke-linecap:round;}#mermaid-svg-44 .error-icon{fill:#a44141;}#mermaid-svg-44 .error-text{fill:#ddd;stroke:#ddd;}#mermaid-svg-44 .edge-thickness-normal{stroke-width:1px;}#mermaid-svg-44 .edge-thickness-thick{stroke-width:3.5px;}#mermaid-svg-44 .edge-pattern-solid{stroke-dasharray:0;}#mermaid-svg-44 .edge-thickness-invisible{stroke-width:0;fill:none;}#mermaid-svg-44 .edge-pattern-dashed{stroke-dasharray:3;}#mermaid-svg-44 .edge-pattern-dotted{stroke-dasharray:2;}#mermaid-svg-44 .marker{fill:lightgrey;stroke:lightgrey;}#mermaid-svg-44 .marker.cross{stroke:lightgrey;}#mermaid-svg-44 svg{font-family:"trebuchet ms",verdana,arial,sans-serif;font-size:16px;}#mermaid-svg-44 p{margin:0;}#mermaid-svg-44 .label{font-family:"trebuchet ms",verdana,arial,sans-serif;color:#ccc;}#mermaid-svg-44 .cluster-label text{fill:#F9FFFE;}#mermaid-svg-44 .cluster-label span{color:#F9FFFE;}#mermaid-svg-44 .cluster-label span p{background-color:transparent;}#mermaid-svg-44 .label text,#mermaid-svg-44 span{fill:#ccc;color:#ccc;}#mermaid-svg-44 .node rect,#mermaid-svg-44 .node circle,#mermaid-svg-44 .node ellipse,#mermaid-svg-44 .node polygon,#mermaid-svg-44 .node path{fill:#1f2020;stroke:#ccc;stroke-width:1px;}#mermaid-svg-44 .rough-node .label text,#mermaid-svg-44 .node .label text,#mermaid-svg-44 .image-shape .label,#mermaid-svg-44 .icon-shape .label{text-anchor:middle;}#mermaid-svg-44 .node .katex path{fill:#000;stroke:#000;stroke-width:1px;}#mermaid-svg-44 .rough-node .label,#mermaid-svg-44 .node .label,#mermaid-svg-44 .image-shape .label,#mermaid-svg-44 .icon-shape .label{text-align:center;}#mermaid-svg-44 .node.clickable{cursor:pointer;}#mermaid-svg-44 .root .anchor path{fill:lightgrey!important;stroke-width:0;stroke:lightgrey;}#mermaid-svg-44 .arrowheadPath{fill:lightgrey;}#mermaid-svg-44 .edgePath .path{stroke:lightgrey;stroke-width:2.0px;}#mermaid-svg-44 .flowchart-link{stroke:lightgrey;fill:none;}#mermaid-svg-44 .edgeLabel{background-color:hsl(0, 0%, 34.4117647059%);text-align:center;}#mermaid-svg-44 .edgeLabel p{background-color:hsl(0, 0%, 34.4117647059%);}#mermaid-svg-44 .edgeLabel rect{opacity:0.5;background-color:hsl(0, 0%, 34.4117647059%);fill:hsl(0, 0%, 34.4117647059%);}#mermaid-svg-44 .labelBkg{background-color:rgba(87.75, 87.75, 87.75, 0.5);}#mermaid-svg-44 .cluster rect{fill:hsl(180, 1.5873015873%, 28.3529411765%);stroke:rgba(255, 255, 255, 0.25);stroke-width:1px;}#mermaid-svg-44 .cluster text{fill:#F9FFFE;}#mermaid-svg-44 .cluster span{color:#F9FFFE;}#mermaid-svg-44 div.mermaidTooltip{position:absolute;text-align:center;max-width:200px;padding:2px;font-family:"trebuchet ms",verdana,arial,sans-serif;font-size:12px;background:hsl(20, 1.5873015873%, 12.3529411765%);border:1px solid rgba(255, 255, 255, 0.25);border-radius:2px;pointer-events:none;z-index:100;}#mermaid-svg-44 .flowchartTitleText{text-anchor:middle;font-size:18px;fill:#ccc;}#mermaid-svg-44 rect.text{fill:none;stroke-width:0;}#mermaid-svg-44 .icon-shape,#mermaid-svg-44 .image-shape{background-color:hsl(0, 0%, 34.4117647059%);text-align:center;}#mermaid-svg-44 .icon-shape p,#mermaid-svg-44 .image-shape p{background-color:hsl(0, 0%, 34.4117647059%);padding:2px;}#mermaid-svg-44 .icon-shape rect,#mermaid-svg-44 .image-shape rect{opacity:0.5;background-color:hsl(0, 0%, 34.4117647059%);fill:hsl(0, 0%, 34.4117647059%);}#mermaid-svg-44 .label-icon{display:inline-block;height:1em;overflow:visible;vertical-align:-0.125em;}#mermaid-svg-44 .node .label-icon path{fill:currentColor;stroke:revert;stroke-width:revert;}#mermaid-svg-44 :root{--mermaid-font-family:"trebuchet ms",verdana,arial,sans-serif;}</style><g><marker id="mermaid-svg-44_flowchart-v2-pointEnd" class="marker flowchart-v2" viewBox="0 0 10 10" refX="5" refY="5" markerUnits="userSpaceOnUse" markerWidth="8" markerHeight="8" orient="auto"><path d="M 0 0 L 10 5 L 0 10 z" class="arrowMarkerPath" style="stroke-width: 1; stroke-dasharray: 1, 0;"/></marker><marker id="mermaid-svg-44_flowchart-v2-pointStart" class="marker flowchart-v2" viewBox="0 0 10 10" refX="4.5" refY="5" markerUnits="userSpaceOnUse" markerWidth="8" markerHeight="8" orient="auto"><path d="M 0 5 L 10 10 L 10 0 z" class="arrowMarkerPath" style="stroke-width: 1; stroke-dasharray: 1, 0;"/></marker><marker id="mermaid-svg-44_flowchart-v2-circleEnd" class="marker flowchart-v2" viewBox="0 0 10 10" refX="11" refY="5" markerUnits="userSpaceOnUse" markerWidth="11" markerHeight="11" orient="auto"><circle cx="5" cy="5" r="5" class="arrowMarkerPath" style="stroke-width: 1; stroke-dasharray: 1, 0;"/></marker><marker id="mermaid-svg-44_flowchart-v2-circleStart" class="marker flowchart-v2" viewBox="0 0 10 10" refX="-1" refY="5" markerUnits="userSpaceOnUse" markerWidth="11" markerHeight="11" orient="auto"><circle cx="5" cy="5" r="5" class="arrowMarkerPath" style="stroke-width: 1; stroke-dasharray: 1, 0;"/></marker><marker id="mermaid-svg-44_flowchart-v2-crossEnd" class="marker cross flowchart-v2" viewBox="0 0 11 11" refX="12" refY="5.2" markerUnits="userSpaceOnUse" markerWidth="11" markerHeight="11" orient="auto"><path d="M 1,1 l 9,9 M 10,1 l -9,9" class="arrowMarkerPath" style="stroke-width: 2; stroke-dasharray: 1, 0;"/></marker><marker id="mermaid-svg-44_flowchart-v2-crossStart" class="marker cross flowchart-v2" viewBox="0 0 11 11" refX="-1" refY="5.2" markerUnits="userSpaceOnUse" markerWidth="11" markerHeight="11" orient="auto"><path d="M 1,1 l 9,9 M 10,1 l -9,9" class="arrowMarkerPath" style="stroke-width: 2; stroke-dasharray: 1, 0;"/></marker><g class="root"><g class="clusters"><g class="cluster" id="subGraph0" data-look="classic"><rect style="" x="258.515625" y="8" width="1747.078125" height="207"/><g class="cluster-label" transform="translate(1064.4921875, 8)"><foreignObject width="135.125" height="24"><div xmlns="http://www.w3.org/1999/xhtml" style="display: table-cell; white-space: nowrap; line-height: 1.5; max-width: 200px; text-align: center;"><span class="nodeLabel"><p>Maliyet Katmanları</p></span></div></foreignObject></g></g></g><g class="edgePaths"><path d="M172.068,129L182.31,124.667C192.551,120.333,213.033,111.667,227.441,107.333C241.849,103,250.182,103,257.849,103C265.516,103,272.516,103,276.016,103L279.516,103" id="L_Req_L0_0" class="edge-thickness-normal edge-pattern-solid edge-thickness-normal edge-pattern-solid flowchart-link" style="" marker-end="url(#mermaid-svg-44_flowchart-v2-pointEnd)"/><path d="M528.531,103L532.698,103C536.865,103,545.198,103,552.865,103C560.531,103,567.531,103,571.031,103L574.531,103" id="L_L0_L1_0" class="edge-thickness-normal edge-pattern-solid edge-thickness-normal edge-pattern-solid flowchart-link" style="" marker-end="url(#mermaid-svg-44_flowchart-v2-pointEnd)"/><path d="M831.516,74.032L838.089,72.526C844.661,71.021,857.807,68.011,891.318,66.505C924.828,65,978.703,65,1039.5,65C1100.297,65,1168.016,65,1236.341,65C1304.667,65,1373.599,65,1443.958,65C1514.318,65,1586.104,65,1656.35,65C1726.596,65,1795.302,65,1853.253,65C1911.203,65,1958.398,65,1986.163,65C2013.927,65,2022.26,65,2044.395,65C2066.529,65,2102.464,65,2138.398,65C2174.333,65,2210.268,65,2232.76,66.61C2255.252,68.22,2264.301,71.439,2268.825,73.049L2273.349,74.659" id="L_L1_Resp_0" class="edge-thickness-normal edge-pattern-solid edge-thickness-normal edge-pattern-solid flowchart-link" style="" marker-end="url(#mermaid-svg-44_flowchart-v2-pointEnd)"/><path d="M831.516,131.206L838.089,132.672C844.661,134.137,857.807,137.069,870.286,138.534C882.766,140,894.578,140,900.484,140L906.391,140" id="L_L1_L2_0" class="edge-thickness-normal edge-pattern-solid edge-thickness-normal edge-pattern-solid flowchart-link" style="" marker-end="url(#mermaid-svg-44_flowchart-v2-pointEnd)"/><path d="M1154.766,126.768L1168.26,125.307C1181.755,123.845,1208.745,120.923,1235.071,120.826C1261.398,120.73,1287.062,123.46,1299.894,124.826L1312.726,126.191" id="L_L2_L3_0" class="edge-thickness-normal edge-pattern-solid edge-thickness-normal edge-pattern-solid flowchart-link" style="" marker-end="url(#mermaid-svg-44_flowchart-v2-pointEnd)"/><path d="M1154.766,153.232L1168.26,154.693C1181.755,156.155,1208.745,159.077,1235.071,159.174C1261.398,159.27,1287.062,156.54,1299.894,155.174L1312.726,153.809" id="L_L2_L3_2" class="edge-thickness-normal edge-pattern-solid edge-thickness-normal edge-pattern-solid flowchart-link" style="" marker-end="url(#mermaid-svg-44_flowchart-v2-pointEnd)"/><path d="M1568.359,140L1583.281,140C1598.203,140,1628.047,140,1657.224,140C1686.401,140,1714.911,140,1729.167,140L1743.422,140" id="L_L3_L4_0" class="edge-thickness-normal edge-pattern-solid edge-thickness-normal edge-pattern-solid flowchart-link" style="" marker-end="url(#mermaid-svg-44_flowchart-v2-pointEnd)"/><path d="M1980.594,140L1984.76,140C1988.927,140,1997.26,140,2005.594,140C2013.927,140,2022.26,140,2029.927,140C2037.594,140,2044.594,140,2048.094,140L2051.594,140" id="L_L4_Provider_0" class="edge-thickness-normal edge-pattern-solid edge-thickness-normal edge-pattern-solid flowchart-link" style="" marker-end="url(#mermaid-svg-44_flowchart-v2-pointEnd)"/><path d="M2221.203,140L2225.37,140C2229.536,140,2237.87,140,2246.217,138.552C2254.565,137.103,2262.926,134.206,2267.107,132.758L2271.288,131.309" id="L_Provider_Resp_0" class="edge-thickness-normal edge-pattern-solid edge-thickness-normal edge-pattern-solid flowchart-link" style="" marker-end="url(#mermaid-svg-44_flowchart-v2-pointEnd)"/><path d="M2434.797,103L2445.745,103C2456.693,103,2478.589,103,2499.851,106.414C2521.114,109.827,2541.744,116.654,2552.059,120.068L2562.374,123.481" id="L_Resp_Metrics_0" class="edge-thickness-normal edge-pattern-solid edge-thickness-normal edge-pattern-solid flowchart-link" style="" marker-end="url(#mermaid-svg-44_flowchart-v2-pointEnd)"/><path d="M145.422,183L160.104,193.667C174.787,204.333,204.151,225.667,223,236.333C241.849,247,250.182,247,278.934,247C307.685,247,356.854,247,406.023,247C455.193,247,504.362,247,554.195,247C604.029,247,654.526,247,707.43,247C760.333,247,815.643,247,870.236,247C924.828,247,978.703,247,1039.5,247C1100.297,247,1168.016,247,1236.341,247C1304.667,247,1373.599,247,1443.958,247C1514.318,247,1586.104,247,1656.35,247C1726.596,247,1795.302,247,1853.253,247C1911.203,247,1958.398,247,1986.163,247C2013.927,247,2022.26,247,2044.395,247C2066.529,247,2102.464,247,2138.398,247C2174.333,247,2210.268,247,2246.035,247C2281.802,247,2317.401,247,2359.781,247C2402.161,247,2451.323,247,2490.577,238.663C2529.831,230.325,2559.178,213.651,2573.851,205.313L2588.524,196.976" id="L_Req_Metrics_0" class="edge-thickness-normal edge-pattern-solid edge-thickness-normal edge-pattern-solid flowchart-link" style="" marker-end="url(#mermaid-svg-44_flowchart-v2-pointEnd)"/></g><g class="edgeLabels"><g class="edgeLabel"><g class="label" transform="translate(0, 0)"><foreignObject width="0" height="0"><div xmlns="http://www.w3.org/1999/xhtml" class="labelBkg" style="display: table-cell; white-space: nowrap; line-height: 1.5; max-width: 200px; text-align: center;"><span class="edgeLabel"></span></div></foreignObject></g></g><g class="edgeLabel"><g class="label" transform="translate(0, 0)"><foreignObject width="0" height="0"><div xmlns="http://www.w3.org/1999/xhtml" class="labelBkg" style="display: table-cell; white-space: nowrap; line-height: 1.5; max-width: 200px; text-align: center;"><span class="edgeLabel"></span></div></foreignObject></g></g><g class="edgeLabel" transform="translate(1657.890625, 65)"><g class="label" transform="translate(-64.53125, -12)"><foreignObject width="129.0625" height="24"><div xmlns="http://www.w3.org/1999/xhtml" class="labelBkg" style="display: table-cell; white-space: nowrap; line-height: 1.5; max-width: 200px; text-align: center;"><span class="edgeLabel"><p>Hit: %100 Tasarruf</p></span></div></foreignObject></g></g><g class="edgeLabel" transform="translate(870.953125, 140)"><g class="label" transform="translate(-14.4375, -12)"><foreignObject width="28.875" height="24"><div xmlns="http://www.w3.org/1999/xhtml" class="labelBkg" style="display: table-cell; white-space: nowrap; line-height: 1.5; max-width: 200px; text-align: center;"><span class="edgeLabel"><p>Miss</p></span></div></foreignObject></g></g><g class="edgeLabel" transform="translate(1235.734375, 118)"><g class="label" transform="translate(-55.96875, -12)"><foreignObject width="111.9375" height="24"><div xmlns="http://www.w3.org/1999/xhtml" class="labelBkg" style="display: table-cell; white-space: nowrap; line-height: 1.5; max-width: 200px; text-align: center;"><span class="edgeLabel"><p>TRIVIAL/SIMPLE</p></span></div></foreignObject></g></g><g class="edgeLabel" transform="translate(1235.72619, 161.99911)"><g class="label" transform="translate(-33.1015625, -12)"><foreignObject width="66.203125" height="24"><div xmlns="http://www.w3.org/1999/xhtml" class="labelBkg" style="display: table-cell; white-space: nowrap; line-height: 1.5; max-width: 200px; text-align: center;"><span class="edgeLabel"><p>COMPLEX</p></span></div></foreignObject></g></g><g class="edgeLabel"><g class="label" transform="translate(0, 0)"><foreignObject width="0" height="0"><div xmlns="http://www.w3.org/1999/xhtml" class="labelBkg" style="display: table-cell; white-space: nowrap; line-height: 1.5; max-width: 200px; text-align: center;"><span class="edgeLabel"></span></div></foreignObject></g></g><g class="edgeLabel"><g class="label" transform="translate(0, 0)"><foreignObject width="0" height="0"><div xmlns="http://www.w3.org/1999/xhtml" class="labelBkg" style="display: table-cell; white-space: nowrap; line-height: 1.5; max-width: 200px; text-align: center;"><span class="edgeLabel"></span></div></foreignObject></g></g><g class="edgeLabel"><g class="label" transform="translate(0, 0)"><foreignObject width="0" height="0"><div xmlns="http://www.w3.org/1999/xhtml" class="labelBkg" style="display: table-cell; white-space: nowrap; line-height: 1.5; max-width: 200px; text-align: center;"><span class="edgeLabel"></span></div></foreignObject></g></g><g class="edgeLabel" transform="translate(2500.484375, 103)"><g class="label" transform="translate(-40.6875, -12)"><foreignObject width="81.375" height="24"><div xmlns="http://www.w3.org/1999/xhtml" class="labelBkg" style="display: table-cell; white-space: nowrap; line-height: 1.5; max-width: 200px; text-align: center;"><span class="edgeLabel"><p>Actual Cost</p></span></div></foreignObject></g></g><g class="edgeLabel" transform="translate(1442.53125, 247)"><g class="label" transform="translate(-47.609375, -12)"><foreignObject width="95.21875" height="24"><div xmlns="http://www.w3.org/1999/xhtml" class="labelBkg" style="display: table-cell; white-space: nowrap; line-height: 1.5; max-width: 200px; text-align: center;"><span class="edgeLabel"><p>Baseline Cost</p></span></div></foreignObject></g></g></g><g class="nodes"><g class="node default" id="flowchart-Req-0" transform="translate(108.2578125, 156)"><rect class="basic label-container" style="" x="-100.2578125" y="-27" width="200.515625" height="54"/><g class="label" style="" transform="translate(-70.2578125, -12)"><rect/><foreignObject width="140.515625" height="24"><div xmlns="http://www.w3.org/1999/xhtml" style="display: table-cell; white-space: nowrap; line-height: 1.5; max-width: 200px; text-align: center;"><span class="nodeLabel"><p>LLM İsteği / Prompt</p></span></div></foreignObject></g></g><g class="node default" id="flowchart-Resp-1" transform="translate(2353, 103)"><rect class="basic label-container" style="" x="-81.796875" y="-27" width="163.59375" height="54"/><g class="label" style="" transform="translate(-51.796875, -12)"><rect/><foreignObject width="103.59375" height="24"><div xmlns="http://www.w3.org/1999/xhtml" style="display: table-cell; white-space: nowrap; line-height: 1.5; max-width: 200px; text-align: center;"><span class="nodeLabel"><p>Yanıt / Output</p></span></div></foreignObject></g></g><g class="node default" id="flowchart-L0-2" transform="translate(406.0234375, 103)"><rect class="basic label-container" style="" x="-122.5078125" y="-39" width="245.015625" height="78"/><g class="label" style="" transform="translate(-92.5078125, -24)"><rect/><foreignObject width="185.015625" height="48"><div xmlns="http://www.w3.org/1999/xhtml" style="display: table-cell; white-space: nowrap; line-height: 1.5; max-width: 200px; text-align: center;"><span class="nodeLabel"><p>L0: Context Compression<br />Boşluk silme, JSON minify</p></span></div></foreignObject></g></g><g class="node default" id="flowchart-L1-3" transform="translate(705.0234375, 103)"><rect class="basic label-container" style="" x="-126.4921875" y="-39" width="252.984375" height="78"/><g class="label" style="" transform="translate(-96.4921875, -24)"><rect/><foreignObject width="192.984375" height="48"><div xmlns="http://www.w3.org/1999/xhtml" style="display: table-cell; white-space: nowrap; line-height: 1.5; max-width: 200px; text-align: center;"><span class="nodeLabel"><p>L1: Semantic Cache<br />Qdrant Embedding + Judge</p></span></div></foreignObject></g></g><g class="node default" id="flowchart-L2-4" transform="translate(1032.578125, 140)"><rect class="basic label-container" style="" x="-122.1875" y="-39" width="244.375" height="78"/><g class="label" style="" transform="translate(-92.1875, -24)"><rect/><foreignObject width="184.375" height="48"><div xmlns="http://www.w3.org/1999/xhtml" style="display: table-cell; white-space: nowrap; line-height: 1.5; max-width: 200px; text-align: center;"><span class="nodeLabel"><p>L2: Level Router<br />Haiku ile Complexity 1-10</p></span></div></foreignObject></g></g><g class="node default" id="flowchart-L3-5" transform="translate(1442.53125, 140)"><rect class="basic label-container" style="" x="-125.828125" y="-39" width="251.65625" height="78"/><g class="label" style="" transform="translate(-95.828125, -24)"><rect/><foreignObject width="191.65625" height="48"><div xmlns="http://www.w3.org/1999/xhtml" style="display: table-cell; white-space: nowrap; line-height: 1.5; max-width: 200px; text-align: center;"><span class="nodeLabel"><p>L3: Prompt Cache<br />Cache_control breakpoints</p></span></div></foreignObject></g></g><g class="node default" id="flowchart-L4-6" transform="translate(1864.0078125, 140)"><rect class="basic label-container" style="" x="-116.5859375" y="-39" width="233.171875" height="78"/><g class="label" style="" transform="translate(-86.5859375, -24)"><rect/><foreignObject width="173.171875" height="48"><div xmlns="http://www.w3.org/1999/xhtml" style="display: table-cell; white-space: nowrap; line-height: 1.5; max-width: 200px; text-align: center;"><span class="nodeLabel"><p>L4: Output Minimization<br />Kıdemli Dev Direktifi</p></span></div></foreignObject></g></g><g class="node default" id="flowchart-Provider-7" transform="translate(2138.3984375, 140)"><rect class="basic label-container" style="" x="-82.8046875" y="-27" width="165.609375" height="54"/><g class="label" style="" transform="translate(-52.8046875, -12)"><rect/><foreignObject width="105.609375" height="24"><div xmlns="http://www.w3.org/1999/xhtml" style="display: table-cell; white-space: nowrap; line-height: 1.5; max-width: 200px; text-align: center;"><span class="nodeLabel"><p>LLM Sağlayıcısı</p></span></div></foreignObject></g></g><g class="node default" id="flowchart-Metrics-8" transform="translate(2660.640625, 156)"><rect class="basic label-container" style="" x="-94.46875" y="-39" width="188.9375" height="78"/><g class="label" style="" transform="translate(-64.46875, -24)"><rect/><foreignObject width="128.9375" height="48"><div xmlns="http://www.w3.org/1999/xhtml" style="display: table-cell; white-space: nowrap; line-height: 1.5; max-width: 200px; text-align: center;"><span class="nodeLabel"><p>Cost Metrics<br />Actual vs Baseline</p></span></div></foreignObject></g></g></g></g></g></svg>